# xmcd CD database file
#
# Track frame offsets:
#	150
#	15957
#	30338
#	47443
#	63512
#	80277
#	96003
#	117809
#	137740
#	154233
#	171096
#	194707
#
# Disc length: 2876 seconds
#
# Revision: 0
# Processed by: cddbd v1.5.2PL0 Copyright (c) Steve Scherf et al.
# Submitted via: CDex 1.51
#
DISCID=8e0b3a0c
DTITLE=Smokin' Joe Kubek and Bnois King - Fat Man's Shine Parlor
DYEAR=2015
DGENRE=Blues
TTITLE0=Got My Heart Broken
TTITLE1=Cornbread
TTITLE2=Diamond Eyes
TTITLE3=Crash and Burn
TTITLE4=River Of Whiskey
TTITLE5=Don't Want To Be Alone
TTITLE6=Brown Bomba Mojo
TTITLE7=How Much
TTITLE8=One Girl By My Side
TTITLE9=Lone Star Lap Dance
TTITLE10=Done Got Caught Blues
TTITLE11=	 - Headed For Ruin
EXTD=YEAR: 2015
EXTT0=
EXTT1=
EXTT2=
EXTT3=
EXTT4=
EXTT5=
EXTT6=
EXTT7=
EXTT8=
EXTT9=
EXTT10=
EXTT11=
PLAYORDER=
